<?xml version="1.0" encoding="UTF-8"?>
<svg version="1.1" xmlns="http://www.w3.org/2000/svg" width="500" height="500">
<path d="M0 0 C2.16192036 -0.0028186 4.32382237 -0.00833723 6.48573685 -0.01401138 C40.53901153 -0.07890965 74.25644507 2.39405946 107.64073563 9.30962753 C107.64073563 12.60962753 107.64073563 15.90962753 107.64073563 19.30962753 C106.11319656 18.92870956 106.11319656 18.92870956 104.55479813 18.54009628 C76.19996071 11.58955022 48.13737347 9.92193859 19.02571869 9.9917717 C16.67346155 9.99719619 14.32121445 9.99957576 11.96895218 10.00164413 C-14.56195547 10.0379342 -40.92713294 10.8908121 -67.35926437 13.30962753 C-68.14474655 13.37988144 -68.93022873 13.45013535 -69.7395134 13.52251816 C-156.36923245 21.3065983 -258.07040014 36.97857772 -339.35926437 93.30962753 C-340.185634 93.95665634 -340.185634 93.95665634 -341.02869797 94.61675644 C-358.03976973 108.11033465 -374.53557973 125.47798635 -377.87879562 147.77447128 C-379.74921566 166.70476636 -372.34680308 185.42321947 -360.67176437 200.24712753 C-359.24530946 201.94397428 -357.8065828 203.63054091 -356.35926437 205.30962753 C-355.41670553 206.43496523 -354.47537575 207.5613331 -353.53504562 208.68853378 C-345.16488858 218.6617175 -336.29277601 227.87456087 -326.35926437 236.30962753 C-325.31972732 237.20100148 -324.28070862 238.09298013 -323.24207687 238.98540878 C-320.85756756 241.03357607 -318.47068155 243.07892061 -316.08192062 245.12212753 C-313.62762733 247.22194754 -311.17722058 249.3261539 -308.73035812 251.43462753 C-303.40558876 256.01907796 -298.0695106 260.57363692 -292.60926437 264.99712753 C-288.22918514 268.55113919 -284.04498149 272.27498884 -279.87488937 276.07134628 C-276.45025717 279.11841811 -272.89314629 281.98708395 -269.33192062 284.87212753 C-264.19992184 289.08023166 -259.18885768 293.42867874 -254.16199875 297.76128769 C-252.38440525 299.28803444 -250.59974423 300.80604461 -248.81238937 302.32134628 C-241.85236392 308.23085646 -235.05927242 314.28134407 -228.37879562 320.50494003 C-225.71089088 322.99027293 -223.01195545 325.4384156 -220.29676437 327.87212753 C-214.61094255 332.97549932 -208.95551338 338.10813468 -203.35926437 343.30962753 C-202.60258469 344.01087753 -201.845905 344.71212753 -201.06629562 345.43462753 C-196.05614297 350.24127302 -192.10558517 355.47210651 -188.35926437 361.30962753 C-187.40020187 362.76369003 -187.40020187 362.76369003 -186.42176437 364.24712753 C-184.78597765 368.9620422 -184.59569118 373.38311204 -185.35926437 378.30962753 C-189.05626014 384.66383901 -194.48917229 387.15683415 -201.29676437 389.18462753 C-236.13819638 398.24339985 -286.26579824 393.1458217 -318.17957687 375.77447128 C-322.99686926 372.74623764 -326.77156026 369.48503576 -329.35926437 364.30962753 C-330.21971415 358.38481622 -329.42854441 354.14986758 -325.95301437 349.27447128 C-315.05322919 335.83674592 -299.57001834 327.43120475 -282.35926437 325.30962753 C-269.2043193 324.60573247 -255.61690164 324.47258005 -244.35926437 332.30962753 C-243.07801437 334.47369003 -243.07801437 334.47369003 -242.35926437 336.30962753 C-243.42176437 337.87212753 -243.42176437 337.87212753 -245.35926437 339.30962753 C-249.83447065 339.21639407 -253.08851523 338.00336372 -257.17176437 336.24712753 C-268.45714426 332.03061197 -281.16996688 333.18113818 -292.16785812 337.69244003 C-300.44531495 341.88689184 -309.08986985 347.77083848 -313.35926437 356.30962753 C-313.50301859 359.68785169 -313.43462786 362.08353708 -312.35926437 365.30962753 C-310.56848921 366.42726191 -310.56848921 366.42726191 -308.35926437 367.30962753 C-307.23197922 367.86070175 -307.23197922 367.86070175 -306.08192062 368.42290878 C-278.65280268 380.7881646 -235.79813954 388.10695123 -206.35926437 380.30962753 C-202.17501554 378.29620836 -202.17501554 378.29620836 -200.23426437 374.18462753 C-200.536925 364.80214799 -207.31813142 359.00507604 -213.71863937 352.87994003 C-215.81375255 350.8406139 -217.7029368 348.81882286 -219.54676437 346.55962753 C-221.54345135 344.14201736 -223.66208856 342.10174639 -226.04676437 340.06744003 C-230.2041118 336.47220349 -234.19099084 332.72291763 -238.17176437 328.93462753 C-243.54827937 323.85227216 -248.99802027 319.02568599 -254.78504562 314.41509628 C-257.56956786 312.13761907 -260.21340241 309.74650745 -262.85926437 307.30962753 C-267.24955007 303.27329698 -271.77102057 299.46932224 -276.41004562 295.72369003 C-279.77294777 292.97100986 -283.06859116 290.14784433 -286.35926437 287.30962753 C-290.46149058 283.77343551 -294.58728727 280.28099086 -298.79676437 276.87212753 C-304.48690859 272.24992827 -310.00945003 267.44608849 -315.53504562 262.62994003 C-317.9767715 260.50353433 -320.43048542 258.39324076 -322.90223312 256.30181503 C-329.83172499 250.43442263 -336.56213586 244.4054307 -343.16688156 238.1736412 C-346.25392182 235.26238848 -349.3570283 232.41252351 -352.60926437 229.68462753 C-370.64755231 214.06706222 -388.19456172 191.21082293 -392.35926437 167.30962753 C-394.01241245 143.35836218 -388.8749267 126.02134777 -373.29676437 107.87212753 C-371.34446399 105.65915585 -369.36064043 103.47820716 -367.35926437 101.30962753 C-366.68250656 100.56197128 -366.00574875 99.81431503 -365.30848312 99.04400253 C-306.77899365 37.38124274 -200.79366868 19.60684529 -76.35926437 3.30962753 C-75.50489792 3.22606003 -74.65053146 3.14249252 -73.77027512 3.05639267 C-49.19941216 0.66908117 -24.6713152 0.02934553 0 0 Z " fill="#E8D6BC" transform="translate(392.3592643737793,24.690372467041016)"/>
<path d="M0 0 C1.00330815 3.78757214 0.97733102 6.04905888 -0.34375 9.7265625 C-0.67536133 10.65766846 -1.00697266 11.58877441 -1.34863281 12.5480957 C-1.91855957 14.07116333 -1.91855957 14.07116333 -2.5 15.625 C-2.89799805 16.70676514 -3.29599609 17.78853027 -3.70605469 18.90307617 C-13.16730753 44.12779221 -24.46400604 68.66916479 -36 93 C-32.04597959 93 -30.79745595 91.57481058 -27.6875 89.1875 C-21.6375499 84.55511143 -16.84022308 81.41580365 -9.1171875 81.71484375 C-6.08606532 82.12309452 -4.29414779 82.98393073 -2 85 C2.14287503 93.4456505 -0.02441243 103.47472196 -1.5625 112.3828125 C-2.0549588 114.88652096 -2.0549588 114.88652096 -2 117 C9.0598789 114.9132304 16.63507215 109.89917767 23.94238281 101.47094727 C30.76042491 93.68462656 42.36567385 84.84079581 53.0859375 83.796875 C57.90179695 83.69825672 61.11310135 83.8198102 65 87 C67 90 67 90 66.8125 93.5625 C66 97 66 97 63 99 C60.30466424 98.73916106 59.18270384 98.17010357 57.1875 96.3125 C54.96357656 94.67511129 54.96357656 94.67511129 51.8125 95.375 C41.46533379 99.02303937 32.79097434 109.0343825 28 118.5625 C27.31867367 120.0349717 26.64623571 121.51179374 26 123 C35.34430692 121.92439633 42.78388357 112.46500564 48.9296875 105.9453125 C52.10176973 102.96475222 54.79006746 101.16939056 59.125 100.5625 C62 101 62 101 63.73046875 102.44921875 C65.70586813 106.41825197 64.81362041 109.96425601 64.1875 114.25 C64.07857422 115.09046875 63.96964844 115.9309375 63.85742188 116.796875 C63.58694071 118.86664395 63.29549598 120.93365403 63 123 C73.7465012 121.38510805 79.37703048 116.13652349 86.23828125 107.953125 C88 106 88 106 91 104 C93.1875 104.375 93.1875 104.375 95 105 C95.94117961 107.54118494 96.07876951 108.75480466 95.23828125 111.37109375 C90.66696326 121.07613162 81.12839756 127.52713783 71.4375 131.4375 C65.82167662 132.35645292 60.48550896 132.89901388 55.0625 130.9375 C52.20378824 128.2520435 51.31952422 125.68077808 50 122 C49.05640625 122.79664063 49.05640625 122.79664063 48.09375 123.609375 C38.59066705 131.45228081 30.53850498 136.03001937 18 135 C14.5625 134 14.5625 134 12 132 C10.62768063 129.3545022 9.85115115 126.88445668 9 124 C8.23816406 124.28875 7.47632813 124.5775 6.69140625 124.875 C-5.90586625 129.4043564 -5.90586625 129.4043564 -12 128 C-14.5625 126.25 -14.5625 126.25 -16 123 C-16.84091397 115.78124502 -15.82589944 108.77802837 -14.4375 101.69140625 C-14.01199025 99.07376146 -13.92315679 96.646288 -14 94 C-30.49554308 99.64712285 -41.84586091 117.7088863 -51.59667969 131.2109375 C-52.11907227 131.92507813 -52.64146484 132.63921875 -53.1796875 133.375 C-53.64874512 134.02210938 -54.11780273 134.66921875 -54.60107422 135.3359375 C-56 137 -56 137 -59 139 C-62.6875 138.625 -62.6875 138.625 -66 138 C-66.33 136.35 -66.66 134.7 -67 133 C-68.17755859 133.50660156 -68.17755859 133.50660156 -69.37890625 134.0234375 C-70.95478516 134.69246094 -70.95478516 134.69246094 -72.5625 135.375 C-73.59503906 135.81585938 -74.62757813 136.25671875 -75.69140625 136.7109375 C-86.02885493 140.73851491 -98.15323983 142.23041259 -108.8125 138.3125 C-112.50701398 136.53762276 -114.94583747 134.64146995 -117 131 C-117 130.01 -117 129.02 -117 128 C-118.0621875 128.54269531 -119.124375 129.08539063 -120.21875 129.64453125 C-121.64572284 130.36740565 -123.07281246 131.09004957 -124.5 131.8125 C-125.19609375 132.16892578 -125.8921875 132.52535156 -126.609375 132.89257812 C-134.01048333 136.62739668 -140.55599995 139.70366667 -149 139 C-151.55500218 138.08949013 -152.69720884 137.62269661 -153.8984375 135.15234375 C-155.64747327 127.02362833 -153.76925379 120.71434984 -151 113 C-155.98448527 114.34573584 -159.59322412 116.61225369 -163.5625 119.8125 C-164.16602295 120.28880859 -164.7695459 120.76511719 -165.39135742 121.25585938 C-169.87176026 124.87426469 -173.84657658 128.83354575 -177.8125 133 C-182.49199084 137.86883847 -186.03834569 141.11598041 -193 142 C-195.5625 140.6875 -195.5625 140.6875 -197 139 C-196.45055394 134.03451215 -194.80646866 130.10869574 -192.5078125 125.73828125 C-191.98790237 124.72957222 -191.98790237 124.72957222 -191.45748901 123.70048523 C-190.72677878 122.28743462 -189.9920131 120.87647454 -189.25341797 119.4675293 C-188.12568378 117.31380586 -187.01316206 115.15272226 -185.90234375 112.99023438 C-185.18838874 111.61412187 -184.47357416 110.23845492 -183.7578125 108.86328125 C-183.42645294 108.21950027 -183.09509338 107.5757193 -182.75369263 106.91242981 C-179.67519294 101.07316212 -179.67519294 101.07316212 -177 99 C-174 98.125 -174 98.125 -171 98 C-169.29296875 99.19921875 -169.29296875 99.19921875 -168 101 C-167.92578125 103.26171875 -167.92578125 103.26171875 -168.3125 105.6875 C-168.43238281 106.49574219 -168.55226562 107.30398438 -168.67578125 108.13671875 C-168.78277344 108.75160156 -168.88976562 109.36648438 -169 110 C-167.99839844 109.37351562 -166.99679688 108.74703125 -165.96484375 108.1015625 C-164.622664 107.27560573 -163.28020089 106.45010931 -161.9375 105.625 C-161.28072266 105.2125 -160.62394531 104.8 -159.94726562 104.375 C-152.93784026 100.09338056 -147.10587662 98.24372673 -139 100 C-136.62451768 101.53256924 -136.16241381 102.50922784 -135.28125 105.171875 C-134.90217731 108.98366146 -136.02868267 111.45695803 -137.4375 115 C-139.09667894 119.19541704 -140.35230517 122.46299688 -140 127 C-128.70465129 123.7996512 -119.51928169 118.99759745 -113.0625 109 C-106.63882818 99.65647735 -97.6835712 94.83039876 -86.765625 92.46484375 C-80.3848417 91.39236746 -75.64528535 91.6117096 -70.1875 95.1875 C-68.1501265 98.29717535 -68.470791 100.35433798 -69 104 C-71.79800344 110.40797651 -75.7727471 114.33159139 -82.14453125 117.13671875 C-89.23391877 119.28002196 -96.65971289 119.03296536 -104 119 C-104.34067342 123.03043073 -104.34067342 123.03043073 -104 127 C-100.02315437 130.42450596 -95.36271653 131.38450678 -90.17578125 131.2734375 C-78.30722639 129.78187764 -69.11675896 123.37040768 -61 115 C-60.34 115 -59.68 115 -59 115 C-58.7510498 114.35877197 -58.50209961 113.71754395 -58.24560547 113.05688477 C-56.60459804 109.02962996 -54.83692325 105.06330676 -53.0703125 101.08984375 C-52.27278729 99.29113272 -51.47534597 97.49238449 -50.67797852 95.69360352 C-50.26121857 94.75412872 -49.84445862 93.81465393 -49.41506958 92.84671021 C-41.21083649 74.34550762 -33.13530082 55.7978741 -25.22265625 37.16998291 C-23.59995107 33.35039781 -21.97462278 29.53194769 -20.34616089 25.71481323 C-19.59292963 23.94644013 -18.84338369 22.17649867 -18.09399414 20.40649414 C-9.31890789 -0.17257237 -9.31890789 -0.17257237 0 0 Z M-95 105 C-96.97424869 107.06544894 -96.97424869 107.06544894 -98 109 C-95.32207206 110.820991 -93.8595082 110.9974456 -90.5625 110.9375 C-86.3229876 109.82183884 -84.60376909 108.49881472 -82 105 C-82.04497842 102.72476911 -82.04497842 102.72476911 -83 101 C-87.91137124 101 -90.89348791 102.41926204 -95 105 Z " fill="#E8D6BD" transform="translate(374,189)"/>
<path d="M0 0 C1.32 0.33 2.64 0.66 4 1 C4.625 2.875 4.625 2.875 5 5 C4.34 5.66 3.68 6.32 3 7 C0.9375 6.8125 0.9375 6.8125 -1 6 C-1.33 5.01 -1.66 4.02 -2 3 C-1.34 2.01 -0.68 1.02 0 0 Z " fill="#DDCDBA" transform="translate(471,282)"/>
<path d="M0 0 C0.66 0 1.32 0 2 0 C2 0.66 2 1.32 2 2 C4.97 2.33 7.94 2.66 11 3 C11 3.66 11 4.32 11 5 C9.54052295 4.93993922 8.08220728 4.8511311 6.625 4.75 C5.81289062 4.70359375 5.00078125 4.6571875 4.1640625 4.609375 C2 4 2 4 0.7109375 1.953125 C0.47632813 1.30859375 0.24171875 0.6640625 0 0 Z " fill="#E0D3C1" transform="translate(220,323)"/>
<path d="M0 0 C3.87915244 0.57468925 6.14756605 2.37884447 9 5 C9.33 5.99 9.66 6.98 10 8 C6.05205855 6.32971708 3.18203882 3.8204435 0 1 C0 0.67 0 0.34 0 0 Z " fill="#E0D3C3" transform="translate(87,295)"/>
<path d="M0 0 C2.3125 -0.25 2.3125 -0.25 5 0 C6.875 1.75 6.875 1.75 8 4 C7.6875 6.25 7.6875 6.25 7 8 C6.5875 7.195625 6.175 6.39125 5.75 5.5625 C4.26547669 2.85890282 4.26547669 2.85890282 1.8125 2.1875 C1.214375 2.125625 0.61625 2.06375 0 2 C0 1.34 0 0.68 0 0 Z " fill="#E1D9C7" transform="translate(431,290)"/>
<path d="M0 0 C0 2 0 2 -2 4.125 C-2.66 4.74375 -3.32 5.3625 -4 6 C-4.99 5.67 -5.98 5.34 -7 5 C-2.25 0 -2.25 0 0 0 Z " fill="#E5DAC8" transform="translate(467,293)"/>
</svg>