<?xml version="1.0" encoding="UTF-8"?>
<svg version="1.1" xmlns="http://www.w3.org/2000/svg" width="500" height="500">
<path d="M0 0 C165 0 330 0 500 0 C500 165 500 330 500 500 C335 500 170 500 0 500 C0 335 0 170 0 0 Z " fill="#FEFEFE" transform="translate(0,0)"/>
<path d="M0 0 C0.73863281 0.38414062 1.47726562 0.76828125 2.23828125 1.1640625 C15.68247867 8.83900239 24.33838639 21.10329885 28.53491211 35.8840332 C29.32559155 39.48131339 29.18450209 43.08055769 29.1875 46.75 C29.19974609 47.5234375 29.21199219 48.296875 29.22460938 49.09375 C29.25973639 63.05088275 23.62722019 75.98431303 14 86 C1.11335965 98.18022983 -13.0899379 101.68626811 -30.33203125 101.30859375 C-43.34061611 100.6781757 -55.2433656 93.81028468 -64.0859375 84.421875 C-75.59252534 69.86251896 -78.86275607 54.26374116 -77 36 C-74.05259612 22.51835634 -64.9591237 11.09337584 -54 3 C-50.11045058 0.71145198 -46.16494171 -1.26460762 -42 -3 C-41.11957031 -3.37382812 -40.23914063 -3.74765625 -39.33203125 -4.1328125 C-26.60545047 -7.44500586 -11.52756086 -6.31312712 0 0 Z M-55.1875 22.25 C-63.29756307 32.17707173 -64.85693041 42.62211626 -64 55 C-63.43789424 58.2964168 -62.48542933 61.01226145 -61 64 C-60.5978125 64.81855469 -60.195625 65.63710938 -59.78125 66.48046875 C-54.41504221 76.33342249 -46.4534667 82.96745407 -36 87 C-24.68829661 89.85076854 -13.71497486 88.06811467 -3.49609375 82.6796875 C6.39600394 76.55361685 12.09212886 68.09404287 15.61328125 57.08203125 C17.77993892 45.41709654 15.38630823 35.1921606 9.25 25.25 C2.55623591 15.9253535 -6.63790542 10.16833866 -18 8 C-32.94355202 6.65199917 -44.99627005 11.25895201 -55.1875 22.25 Z " fill="#6B5204" transform="translate(274,202)"/>
<path d="M0 0 C3.71473532 0.61912255 4.67500815 1.58976218 7 4.5 C7.51757812 7.07788086 7.51757812 7.07788086 7.53125 9.96484375 C7.53640625 11.01220703 7.5415625 12.05957031 7.546875 13.13867188 C7.53140625 14.22728516 7.5159375 15.31589844 7.5 16.4375 C7.51546875 17.52224609 7.5309375 18.60699219 7.546875 19.72460938 C7.50808225 27.6140854 7.50808225 27.6140854 5.15625 31.71484375 C3 33.5 3 33.5 0 34.125 C-3 33.5 -3 33.5 -5.15625 31.71484375 C-7.99156481 26.77106391 -7.57981526 22.0345453 -7.5 16.4375 C-7.51546875 15.34888672 -7.5309375 14.26027344 -7.546875 13.13867188 C-7.54171875 12.09130859 -7.5365625 11.04394531 -7.53125 9.96484375 C-7.52673828 9.012146 -7.52222656 8.05944824 -7.51757812 7.07788086 C-6.63332793 2.67373095 -4.35218435 0.72536406 0 0 Z " fill="#70570C" transform="translate(250,316.5)"/>
<path d="M0 0 C1.64548828 -0.00773438 1.64548828 -0.00773438 3.32421875 -0.015625 C4.46503906 -0.00015625 5.60585938 0.0153125 6.78125 0.03125 C8.49248047 0.00804687 8.49248047 0.00804687 10.23828125 -0.015625 C11.33527344 -0.01046875 12.43226563 -0.0053125 13.5625 0 C15.06393555 0.00676758 15.06393555 0.00676758 16.59570312 0.01367188 C20.0029944 0.67034983 21.22020438 1.77745722 23.28125 4.53125 C23.22149026 7.93755521 23.0901663 10.40040301 21.07397461 13.21899414 C17.18977284 16.06218963 11.46670966 14.99727078 6.84375 14.96875 C5.69841797 14.98873047 4.55308594 15.00871094 3.37304688 15.02929688 C2.27154297 15.02865234 1.17003906 15.02800781 0.03515625 15.02734375 C-1.47582642 15.03012329 -1.47582642 15.03012329 -3.01733398 15.03295898 C-6.43334869 14.3985342 -7.61358396 13.24702795 -9.71875 10.53125 C-10.21875 7.53125 -10.21875 7.53125 -9.71875 4.53125 C-6.7582629 0.72096146 -4.75927003 0.02145196 0 0 Z " fill="#71580D" transform="translate(326.71875,242.46875)"/>
<path d="M0 0 C1.04736328 -0.00515625 2.09472656 -0.0103125 3.17382812 -0.015625 C4.26244141 -0.00015625 5.35105469 0.0153125 6.47265625 0.03125 C7.55740234 0.01578125 8.64214844 0.0003125 9.75976562 -0.015625 C17.64815589 0.02316241 17.64815589 0.02316241 21.75390625 2.375 C23.53515625 4.53125 23.53515625 4.53125 24.09765625 7.53125 C23.40695906 11.21496837 22.4302125 12.21171144 19.53515625 14.53125 C15.59483855 15.34662969 11.61297849 15.13416473 7.59765625 15.09375 C6.51291016 15.11759766 5.42816406 15.14144531 4.31054688 15.16601562 C-4.55651847 15.14966578 -4.55651847 15.14966578 -7.68359375 12.15625 C-9.46484375 9.53125 -9.46484375 9.53125 -10.02734375 6.96875 C-8.77261521 1.53159297 -5.21650684 0.02470396 0 0 Z " fill="#70570C" transform="translate(159.46484375,242.46875)"/>
<path d="M0 0 C3.83952128 1.11695165 4.49539695 1.64729782 6.4375 5 C7.05347353 8.79000511 6.90111909 12.60274281 6.875 16.4375 C6.89498047 17.47455078 6.91496094 18.51160156 6.93554688 19.58007812 C6.93259545 24.17544514 6.92860412 27.15021261 4.59765625 31.18359375 C2.4375 33 2.4375 33 -0.5625 33.625 C-3.5625 33 -3.5625 33 -5.71875 31.21484375 C-8.55406481 26.27106391 -8.14231526 21.5345453 -8.0625 15.9375 C-8.07796875 14.84888672 -8.0934375 13.76027344 -8.109375 12.63867188 C-8.10421875 11.59130859 -8.0990625 10.54394531 -8.09375 9.46484375 C-8.08923828 8.512146 -8.08472656 7.55944824 -8.08007812 6.57788086 C-7.11009394 1.74671904 -4.8162728 0 0 0 Z " fill="#6F560B" transform="translate(250.5625,150)"/>
<path d="M0 0 C5.03961493 1.67593752 7.99598945 5.04472409 11.6484375 8.796875 C12.73995117 9.85938477 12.73995117 9.85938477 13.85351562 10.94335938 C16.92350929 14.04196435 19.05492729 16.26436541 20.4453125 20.4453125 C20.3359375 23.109375 20.3359375 23.109375 18.2734375 26.046875 C15.3359375 28.109375 15.3359375 28.109375 12.671875 28.21875 C7.63226007 26.54281248 4.67588555 23.17402591 1.0234375 19.421875 C0.29576172 18.71353516 -0.43191406 18.00519531 -1.18164062 17.27539062 C-4.25163429 14.17678565 -6.38305229 11.95438459 -7.7734375 7.7734375 C-7.6640625 5.109375 -7.6640625 5.109375 -5.6015625 2.171875 C-2.6640625 0.109375 -2.6640625 0.109375 0 0 Z " fill="#6E5408" transform="translate(184.6640625,176.890625)"/>
<path d="M0 0 C1.9375 1.125 1.9375 1.125 3 3 C3.06312421 7.99312493 1.98494892 10.42994468 -1.31640625 14.18359375 C-2.71579089 15.61733533 -4.13178841 17.03501769 -5.5625 18.4375 C-6.25408203 19.16904297 -6.94566406 19.90058594 -7.65820312 20.65429688 C-13.47996117 26.46520356 -13.47996117 26.46520356 -18.3984375 26.57421875 C-22 26 -22 26 -24.0625 24.375 C-25.40710872 20.96865791 -25.10561517 19.53387368 -24 16 C-21.60579915 12.96521406 -18.86162313 10.34630408 -16.0625 7.6875 C-15.32064453 6.95982422 -14.57878906 6.23214844 -13.81445312 5.48242188 C-6.533877 -1.60013314 -6.533877 -1.60013314 0 0 Z " fill="#6D5407" transform="translate(202,296)"/>
<path d="M0 0 C2 2 2 2 2.58203125 5.6328125 C2.45678702 10.45308188 0.16537905 12.69403817 -3.18554688 15.9375 C-3.88744141 16.576875 -4.58933594 17.21625 -5.3125 17.875 C-6.34793945 18.86886719 -6.34793945 18.86886719 -7.40429688 19.8828125 C-14.63212137 26.75448332 -14.63212137 26.75448332 -18.4375 27.4375 C-21 27 -21 27 -23.375 24.875 C-25 22 -25 22 -25.09765625 19.33984375 C-23.42303246 14.2444582 -19.89195305 11.32498392 -16.0625 7.6875 C-15.32064453 6.95982422 -14.57878906 6.23214844 -13.81445312 5.48242188 C-6.61939202 -1.516944 -6.61939202 -1.516944 0 0 Z " fill="#6D5407" transform="translate(320,178)"/>
<path d="M0 0 C3.06606796 2.2558713 5.69821805 4.86393592 8.375 7.5625 C9.11105469 8.25408203 9.84710938 8.94566406 10.60546875 9.65820312 C16.4707337 15.49626369 16.4707337 15.49626369 16.6015625 20.40234375 C16 24 16 24 14 26 C9.84358185 26.69047989 7.44063054 26.9407729 3.86376953 24.60498047 C1.63972099 22.64549128 -0.40137746 20.59127361 -2.4375 18.4375 C-3.15615234 17.73302734 -3.87480469 17.02855469 -4.61523438 16.30273438 C-10.3210978 10.45678365 -10.3210978 10.45678365 -11.1015625 6.12890625 C-11 3 -11 3 -8.9375 0.5 C-5.1515307 -1.43326092 -4.04971319 -1.29306632 0 0 Z " fill="#6C5305" transform="translate(306,296)"/>
</svg>
